<svg width="40" height="40" viewBox="0 0 40 40" fill="none" xmlns="http://www.w3.org/2000/svg">
<path d="M38.1037 18.4632C37.5192 18.3835 36.9711 18.6625 36.5327 19.101C36.2039 19.4199 35.9846 19.7387 35.875 20.0576C35.6193 20.8149 35.0712 21.4128 34.377 21.7716L31.6368 23.2464C31.7099 23.1667 31.7464 23.0471 31.8195 22.9674C32.2214 22.4093 32.4041 21.7317 32.4041 21.0142L32.4406 15.0353C32.4406 13.7199 31.4542 12.6835 30.285 12.6835H28.239V9.41505H27.5082V1.08435C27.5082 0.56617 27.1429 0.0479924 26.6679 0.00813256C26.1199 -0.071587 25.6449 0.44659 25.6449 1.04449V9.37519H24.9142V12.6437H14.9033V9.37519H14.1725V1.08435C14.1725 0.56617 13.8072 0.0479924 13.3322 0.00813256C12.7842 -0.071587 12.3092 0.44659 12.3092 1.04449V9.37519H11.5785V12.6437H9.4959C8.2902 12.6437 7.34026 13.7199 7.34026 14.9954V21.2135C7.34026 21.7317 7.52294 22.2499 7.81523 22.6884C8.98439 24.3625 10.0074 26.1163 10.8477 27.9897L9.02093 28.9463C8.58249 29.1855 8.07099 29.1855 7.55948 29.0659C7.41333 29.0261 7.23065 29.0261 7.08451 29.0261C6.573 29.1058 6.13457 29.5044 6.02496 30.0624C5.80574 30.8995 6.35378 31.7365 7.12104 31.8163C7.48641 31.8561 7.81523 31.6967 8.07099 31.4177C8.2902 31.2184 8.39981 31.0191 8.47288 30.8198C8.61903 30.3414 8.98439 29.9827 9.38629 29.7834L11.2131 28.8268C11.3958 29.2652 11.5785 29.7435 11.7611 30.2219L5.00195 33.8491C4.27122 34.2477 3.43089 34.2477 2.62709 34.0085C2.37134 33.9288 2.11559 33.9288 1.8233 33.9687C0.982964 34.0883 0.288776 34.7659 0.0695588 35.6428C-0.259267 37.0379 0.617602 38.3533 1.85983 38.5127C2.44441 38.5526 2.99245 38.2735 3.43089 37.8749C3.75971 37.5561 3.97893 37.2372 4.08854 36.9183C4.34429 36.161 4.89234 35.5631 5.58652 35.2043L12.2361 31.6568C12.4553 32.3743 12.6745 33.1316 12.8572 33.889L10.592 35.0848C9.86126 35.4834 9.02093 35.4834 8.21713 35.2442C7.96138 35.1645 7.70562 35.1645 7.41333 35.2043C6.573 35.3239 5.87881 36.0015 5.6596 36.8784C5.33077 38.2735 6.20764 39.5889 7.44987 39.7484C8.03445 39.8281 8.58249 39.5491 9.02093 39.1106C9.34975 38.7917 9.56897 38.4728 9.67858 38.154C9.93433 37.3966 10.4824 36.7987 11.1766 36.44L13.1495 35.3638C13.2226 35.6428 13.2591 35.9218 13.2957 36.2008C13.4053 36.7589 13.4053 37.3169 13.4053 37.8749C13.3687 39.3896 14.7936 40.426 16.0724 39.8281L25.1334 35.6428C25.9372 35.2841 26.5218 34.5666 26.7775 33.6498C27.0333 32.733 27.3256 31.8163 27.6544 30.9393L30.7965 29.2652C31.308 28.9862 31.8926 28.9862 32.4406 29.1456C32.6233 29.1855 32.806 29.2254 32.9887 29.1855C33.5733 29.1058 34.0482 28.6275 34.1944 28.0296C34.4136 27.0729 33.829 26.1562 32.9521 26.0764C32.5502 26.0366 32.1849 26.2359 31.8926 26.5149C31.6734 26.7541 31.5272 26.9534 31.4542 27.1925C31.2715 27.7107 30.9061 28.1093 30.4311 28.3883L28.312 29.5442C28.8601 28.2687 29.4812 26.9932 30.1754 25.7974L34.9982 23.1268C35.7289 22.7282 36.5692 22.7282 37.373 22.9674C37.6288 23.0471 37.8845 23.0471 38.1768 23.0072C39.0171 22.8877 39.7113 22.21 39.9305 21.3331C40.2594 19.938 39.3825 18.5828 38.1037 18.4632Z" fill="url(#paint0_linear_205_231)"/>
<path d="M36.3507 24.4422C35.5103 24.3226 34.7796 25.0002 34.7065 25.8772C34.5969 26.7939 35.218 27.5911 36.0218 27.6709C36.8622 27.7904 37.5929 27.1128 37.666 26.2359C37.7756 25.359 37.191 24.5219 36.3507 24.4422Z" fill="url(#paint1_linear_205_231)"/>
<path d="M3.10282 31.6169C3.46818 31.6568 3.79701 31.3778 3.87008 30.9792C3.90662 30.5806 3.65086 30.2219 3.2855 30.1421C2.92014 30.1023 2.59131 30.3813 2.51824 30.7799C2.48171 31.2183 2.73746 31.5771 3.10282 31.6169Z" fill="url(#paint2_linear_205_231)"/>
<path d="M34.5967 17.8653C34.9621 17.9052 35.2909 17.6262 35.364 17.2276C35.4005 16.829 35.1448 16.4702 34.7794 16.3905C34.414 16.3506 34.0852 16.6297 34.0121 17.0283C33.9756 17.4667 34.2314 17.8255 34.5967 17.8653Z" fill="url(#paint3_linear_205_231)"/>
<path d="M19.9813 16.3905H25.1329L21.1505 22.1702H24.2926L14.7201 32.2148L18.8852 23.8841H16.0719L19.9813 16.3905Z" fill="#F3F3F3"/>
<defs>
<linearGradient id="paint0_linear_205_231" x1="19.9949" y1="-2.37409" x2="19.9949" y2="37.3989" gradientUnits="userSpaceOnUse">
<stop stop-color="#072931"/>
<stop offset="1" stop-color="#2F5291"/>
</linearGradient>
<linearGradient id="paint1_linear_205_231" x1="36.179" y1="-2.37428" x2="36.179" y2="37.399" gradientUnits="userSpaceOnUse">
<stop stop-color="#045E73"/>
<stop offset="1" stop-color="#2F5291"/>
</linearGradient>
<linearGradient id="paint2_linear_205_231" x1="3.18262" y1="-2.37358" x2="3.18262" y2="37.3988" gradientUnits="userSpaceOnUse">
<stop stop-color="#01566A"/>
<stop offset="1" stop-color="#2F5291"/>
</linearGradient>
<linearGradient id="paint3_linear_205_231" x1="34.6767" y1="-2.37406" x2="34.6767" y2="37.3989" gradientUnits="userSpaceOnUse">
<stop stop-color="#044453"/>
<stop offset="1" stop-color="#2F5291"/>
</linearGradient>
</defs>
</svg>
